<?xml version="1.0" encoding="utf-8"?>
<!-- Generator: Adobe Illustrator 27.3.1, SVG Export Plug-In . SVG Version: 6.00 Build 0)  -->
<svg version="1.1" id="レイヤー_1" xmlns="http://www.w3.org/2000/svg" xmlns:xlink="http://www.w3.org/1999/xlink" x="0px"
	 y="0px" viewBox="0 0 117.3 41.9" style="enable-background:new 0 0 117.3 41.9;" xml:space="preserve">
<style type="text/css">
	.st0{fill:#e8b84b;}
</style>
<g>
	<path class="st0" d="M19,26V13h13v2.3H22v3.4h5.4v2.4H22V26H19z"/>
	<path class="st0" d="M35.7,26V13h3V26H35.7z"/>
	<path class="st0" d="M45.3,26V13h2.1l9.1,7.6c0.3,0.3,0.6,0.5,0.8,0.7c0.2,0.2,0.5,0.5,0.6,0.7c0-0.7-0.1-1.2-0.1-1.5
		c0-0.3,0-0.5,0-0.7V13h2.7V26h-2.1L49,18c-0.2-0.2-0.4-0.4-0.6-0.5c-0.2-0.2-0.3-0.3-0.5-0.5c0,0.4,0.1,0.8,0.1,1.1
		c0,0.4,0,0.7,0,0.9v7H45.3z"/>
	<path class="st0" d="M64.6,26L71.9,13h2.9L82.2,26h-3.4l-1.6-2.8h-8.2L67.6,26H64.6z M70.4,20.8H76l-2.8-5.2L70.4,20.8z"/>
	<path class="st0" d="M86.3,26V13h3v10.5H99V26H86.3z"/>
</g>
</svg>
