<?xml version="1.0" encoding="utf-8"?>
<!-- Generator: Adobe Illustrator 27.3.1, SVG Export Plug-In . SVG Version: 6.00 Build 0)  -->
<svg version="1.1" id="レイヤー_1" xmlns="http://www.w3.org/2000/svg" xmlns:xlink="http://www.w3.org/1999/xlink" x="0px"
	 y="0px" viewBox="0 0 825.3 152.9" style="enable-background:new 0 0 825.3 152.9;" xml:space="preserve">
<style type="text/css">
	.st0{fill:#FFFFFF;}
</style>
<g>
	<path class="st0" d="M14,55.2V15.4h9.3V32l22-16.6h13.4L32.4,34.1l29.6,21H47.1L23.3,37.7v17.5H14z"/>
	<path class="st0" d="M75.1,55.2V15.4h6.3l28,23.4c1,0.8,1.8,1.5,2.5,2.2c0.7,0.7,1.4,1.4,2,2.1c-0.2-2.2-0.3-3.8-0.3-4.7
		c-0.1-0.9-0.1-1.6-0.1-2.1V15.4h8.3v39.8h-6.3L86.3,30.6c-0.7-0.6-1.3-1.2-1.8-1.7c-0.5-0.5-1-1-1.5-1.5c0.1,1.2,0.2,2.4,0.3,3.5
		c0.1,1.1,0.1,2,0.1,2.8v21.5H75.1z"/>
	<path class="st0" d="M141.3,24.8c0-3.6,0.7-6.1,2-7.4c1.4-1.3,4-2,7.8-2h29.3c3.9,0,6.5,0.7,7.8,2c1.4,1.3,2,3.8,2,7.4v20.9
		c0,3.6-0.7,6.1-2,7.4c-1.4,1.3-4,2-7.8,2h-29.3c-3.9,0-6.5-0.7-7.8-2c-1.4-1.3-2-3.8-2-7.4V24.8z M150.5,47.7H181V22.5h-30.5V47.7z
		"/>
	<path class="st0" d="M243.1,22.5h-24.9v25.2h24.9v-8.5l9.3,1.9v4.7c0,3.6-0.7,6.1-2,7.4c-1.4,1.3-4,2-7.8,2h-23.7
		c-3.9,0-6.5-0.7-7.8-2c-1.4-1.3-2-3.8-2-7.4V24.8c0-3.6,0.7-6.1,2-7.4c1.4-1.3,4-2,7.8-2h23.7c3.8,0,6.4,0.7,7.8,2
		c1.4,1.3,2,3.8,2,7.4v3.8l-9.3,1.5V22.5z"/>
	<path class="st0" d="M271.4,55.2V15.4h9.3V32l22-16.6h13.4l-26.3,18.7l29.6,21h-14.9l-23.8-17.5v17.5H271.4z"/>
	<path class="st0" d="M329,24.8c0-3.6,0.7-6.1,2-7.4c1.4-1.3,4-2,7.8-2h29.3c3.9,0,6.5,0.7,7.8,2c1.4,1.3,2,3.8,2,7.4v20.9
		c0,3.6-0.7,6.1-2,7.4c-1.4,1.3-4,2-7.8,2h-29.3c-3.9,0-6.5-0.7-7.8-2c-1.4-1.3-2-3.8-2-7.4V24.8z M338.2,47.7h30.5V22.5h-30.5V47.7
		z"/>
	<path class="st0" d="M406.7,15.4v32.3H433V15.4h9.2v30.4c0,3.6-0.7,6.1-2,7.4c-1.4,1.3-4,2-7.8,2h-25.1c-3.8,0-6.4-0.7-7.8-2
		c-1.4-1.3-2-3.8-2-7.4V15.4H406.7z"/>
	<path class="st0" d="M481.1,22.5v32.6h-9.3V22.5h-18.2v-7.1h45.8v7.1H481.1z"/>
	<path class="st0" d="M575,22.4h-26v8.5h24.8c3.9,0,6.5,0.7,7.9,2c1.4,1.3,2.1,3.8,2.1,7.4v5.5c0,3.6-0.7,6.1-2.1,7.4
		c-1.4,1.3-4,2-7.9,2h-24.6c-3.9,0-6.5-0.7-7.9-2c-1.4-1.3-2.1-3.8-2.1-7.4v-1.1l8.2-1.7v4.7h28.1v-9.1h-24.8c-3.9,0-6.5-0.7-7.8-2
		s-2-3.8-2-7.4v-4.4c0-3.6,0.7-6.1,2-7.4c1.4-1.3,4-2,7.8-2h22.6c3.7,0,6.3,0.6,7.7,1.9c1.4,1.3,2.1,3.5,2.1,6.8V25l-8.2,1.9V22.4z"
		/>
	<path class="st0" d="M621.4,22.5v32.6h-9.3V22.5h-18.2v-7.1h45.8v7.1H621.4z"/>
	<path class="st0" d="M638.2,55.2l22.5-39.8h8.9l22.8,39.8H682l-4.8-8.7H652l-4.6,8.7H638.2z M656,39.3h17.4l-8.6-16.2L656,39.3z"/>
	<path class="st0" d="M741.1,22.5h-28.9v25.2h28.9v-8.8H726v-6.8h24.1v13.7c0,3.6-0.7,6.1-2,7.4c-1.4,1.3-4,2-7.8,2h-27.4
		c-3.9,0-6.5-0.7-7.8-2c-1.4-1.3-2-3.8-2-7.4V24.8c0-3.6,0.7-6.1,2-7.4c1.4-1.3,4-2,7.8-2h27.4c3.8,0,6.4,0.7,7.8,2
		c1.4,1.3,2.1,3.7,2.1,7.1v0.9l-9,1.6V22.5z"/>
	<path class="st0" d="M769.7,55.2V15.4h40.7v6.8h-31.4v8.9h18.4v6.8h-18.4v9.9h31.8v7.5H769.7z"/>
</g>
<g>
	<path class="st0" d="M128.5,141.7V92.4h42.1c3.9,0,6.8,0.8,8.5,2.3c1.8,1.5,2.6,3.9,2.6,7.3v11.6c0,3.3-0.9,5.7-2.6,7.3
		c-1.8,1.5-4.6,2.3-8.5,2.3h-6.4l22.7,18.6h-16.5l-19.9-18.6h-10.9v18.6H128.5z M165.6,100.9h-25.8v13.7h25.8c2,0,3.3-0.3,4.1-0.9
		c0.7-0.6,1.1-1.6,1.1-3.1v-5.9c0-1.4-0.4-2.4-1.1-3C169,101.2,167.6,100.9,165.6,100.9z"/>
	<path class="st0" d="M204.1,104.1c0-4.5,0.8-7.5,2.5-9.2c1.7-1.6,4.9-2.5,9.7-2.5h36.3c4.8,0,8,0.8,9.7,2.5
		c1.7,1.6,2.5,4.7,2.5,9.2v26c0,4.5-0.8,7.6-2.5,9.2c-1.7,1.6-4.9,2.4-9.7,2.4h-36.3c-4.8,0-8-0.8-9.7-2.4c-1.7-1.6-2.5-4.7-2.5-9.2
		V104.1z M215.5,132.4h37.8v-31.2h-37.8V132.4z"/>
	<path class="st0" d="M300.4,92.4v40h32.7v-40h11.4V130c0,4.5-0.8,7.6-2.5,9.2c-1.7,1.6-4.9,2.4-9.7,2.4h-31.1c-4.8,0-8-0.8-9.7-2.4
		c-1.7-1.6-2.5-4.7-2.5-9.2V92.4H300.4z"/>
	<path class="st0" d="M369.6,141.7V92.4h7.8l34.7,29c1.2,1,2.2,1.9,3.1,2.7c0.9,0.9,1.7,1.7,2.5,2.6c-0.2-2.8-0.3-4.7-0.4-5.9
		c-0.1-1.1-0.1-2-0.1-2.7V92.4h10.3v49.3h-7.8l-36.2-30.4c-0.9-0.8-1.6-1.5-2.3-2.1s-1.3-1.3-1.8-1.9c0.2,1.5,0.3,3,0.4,4.3
		c0.1,1.4,0.1,2.5,0.1,3.5v26.6H369.6z"/>
	<path class="st0" d="M452.7,141.7V92.4h31.7c9,0,16,2.1,20.9,6.3c4.9,4.2,7.3,10.2,7.3,18c0,4.6-0.9,8.7-2.8,12.4
		c-1.9,3.7-4.6,6.6-8,8.7c-2.1,1.3-4.8,2.3-8,2.9c-3.2,0.6-7.3,0.9-12.2,0.9H452.7z M464.1,132.4H479c7.9,0,13.5-1.2,16.8-3.7
		c3.3-2.5,4.9-6.5,4.9-12.2c0-5-1.4-8.8-4.1-11.4c-2.7-2.6-6.8-3.9-12.1-3.9h-20.3V132.4z"/>
	<path class="st0" d="M591.7,141.7v-39.9h-10.5v-6.6l20.9-3.2v49.6H591.7z"/>
	<path class="st0" d="M653.7,112c3.8-0.6,7.5-1,11.1-1.3c3.6-0.3,7.2-0.4,10.7-0.4c8,0,13.4,0.9,16.4,2.8c3,1.8,4.4,5.2,4.4,10v6.7
		c0,4.1-1.4,7.1-4.1,9.1c-2.7,2-7,2.9-12.8,2.9h-20.8c-6.2,0-10.5-1.1-12.8-3.3c-2.3-2.2-3.5-6.2-3.5-11.9V120
		c0-9.2,3.2-16.3,9.5-21.3c6.4-5,15.3-7.5,26.9-7.5c0.4,0,0.9,0,1.4,0c0.5,0,1.2,0.1,2.1,0.2l6.8,7.9h-3.2c-10.5,0-18,1-22.7,2.9
		C658.5,104.1,655.3,107.4,653.7,112z M653,119.4c-0.1,0.4-0.1,0.8-0.1,1.2c0,0.4,0,0.9,0,1.6c0,4.8,0.6,7.7,1.9,8.8
		c1.3,1.1,4,1.7,8.3,1.7h13.8c3.4,0,5.7-0.4,7-1.3s1.9-2.4,1.9-4.7v-2.7c0-2.3-0.7-3.9-2.2-4.7c-1.4-0.8-4.3-1.2-8.7-1.2
		c-3.5,0-7.1,0.1-10.7,0.3C660.5,118.8,656.8,119.1,653,119.4z"/>
</g>
</svg>
